<svg id="Layer_1" data-name="Layer 1" xmlns="http://www.w3.org/2000/svg" width="256" height="256" viewBox="0 0 256 256">
  <title>Bottle</title>
  <g>
    <path d="M167.51,105.81l-7.85-11.55a25.36,25.36,0,0,1-4.19-11l-7.18-56.12a10.65,10.65,0,0,0,4-8.2c0-6.09-5.39-11-12-11H115.74c-6.62,0-12,5-12,11a10.65,10.65,0,0,0,4,8.2l-7.18,56.12a25.36,25.36,0,0,1-4.19,11l-7.85,11.55a52.83,52.83,0,0,0-9.28,29.76v93.93c0,10.24,9.05,18.56,20.18,18.56h57.22c11.13,0,20.18-8.33,20.18-18.56V135.58A52.83,52.83,0,0,0,167.51,105.81Z"/>
    <path d="M115.74,188.39h-8.17a3.54,3.54,0,1,0,0,7h8.17a3.54,3.54,0,1,0,0-7Z"/>
  </g>
</svg>
