<svg id="Layer_1" data-name="Layer 1" xmlns="http://www.w3.org/2000/svg" viewBox="0 0 128 128"><title>Artboard 1</title><path d="M76.36,31A21.71,21.71,0,0,1,86.47,47.11,17.52,17.52,0,1,0,76.36,31ZM64.88,66.86A17.53,17.53,0,1,0,47.35,49.34,17.53,17.53,0,0,0,64.88,66.86Zm7.43,1.19H57.44A22.47,22.47,0,0,0,35,90.5v18.19l0,.28,1.25.39a102.15,102.15,0,0,0,30.51,4.92c16.49,0,26.05-4.7,26.64-5l1.17-.59h.13V90.5A22.46,22.46,0,0,0,72.32,68.06Zm29-18.09H86.56a21.6,21.6,0,0,1-6.67,15,26.66,26.66,0,0,1,19,25.52v5.6c14.57-.53,23-4.66,23.52-4.94l1.17-.59h.13V72.4A22.46,22.46,0,0,0,101.31,50ZM34.13,48.77a17.41,17.41,0,0,0,9.32-2.71A21.69,21.69,0,0,1,51.6,32.23c0-.33,0-.65,0-1A17.52,17.52,0,1,0,34.13,48.77ZM49.87,65a21.61,21.61,0,0,1-6.66-15c-.55,0-1.09-.08-1.65-.08H26.69A22.47,22.47,0,0,0,4.25,72.4V90.59l0,.28,1.25.4A105.21,105.21,0,0,0,30.82,96V90.53A26.67,26.67,0,0,1,49.87,65Z"/></svg>