<svg id="Layer_1" data-name="Layer 1" xmlns="http://www.w3.org/2000/svg" viewBox="0 0 128 128"><title>Configuraciones</title><g id="Settings"><path d="M121.25,57.6c-.18-1.62-2.07-2.84-3.7-2.84a12.72,12.72,0,0,1-8.71-22.14,3.2,3.2,0,0,0,.35-4.34,57,57,0,0,0-9.13-9.22,3.21,3.21,0,0,0-4.38.35,13.28,13.28,0,0,1-14.37,3.23,12.8,12.8,0,0,1-7.78-12.51A3.2,3.2,0,0,0,70.7,6.77a57.51,57.51,0,0,0-13,0A3.21,3.21,0,0,0,54.89,10,12.82,12.82,0,0,1,47,22.33a13.31,13.31,0,0,1-14.26-3.25,3.21,3.21,0,0,0-4.35-.37,57.22,57.22,0,0,0-9.32,9.21,3.2,3.2,0,0,0,.34,4.38,12.77,12.77,0,0,1,3.22,14.37c-2,4.74-6.91,7.79-12.53,7.79A3.13,3.13,0,0,0,6.78,57.3a57.71,57.71,0,0,0,0,13.1c.18,1.63,2.13,2.83,3.78,2.83a12.63,12.63,0,0,1,11.85,7.89,12.81,12.81,0,0,1-3.22,14.25,3.2,3.2,0,0,0-.35,4.34,57.21,57.21,0,0,0,9.11,9.22,3.2,3.2,0,0,0,4.38-.35,13.26,13.26,0,0,1,14.36-3.23,12.78,12.78,0,0,1,7.79,12.5,3.2,3.2,0,0,0,2.83,3.37,57.34,57.34,0,0,0,13,0,3.21,3.21,0,0,0,2.85-3.3A12.8,12.8,0,0,1,81,105.67a13.29,13.29,0,0,1,14.27,3.25,3.22,3.22,0,0,0,4.35.36,57.35,57.35,0,0,0,9.32-9.21,3.2,3.2,0,0,0-.34-4.38,12.77,12.77,0,0,1-3.23-14.37,12.9,12.9,0,0,1,11.79-7.81l.71,0a3.21,3.21,0,0,0,3.37-2.82A57.66,57.66,0,0,0,121.25,57.6ZM64.09,83.34A19.22,19.22,0,1,1,83.31,64.12,19.24,19.24,0,0,1,64.09,83.34Z"/></g></svg>