<svg id="Layer_1" data-name="Layer 1" xmlns="http://www.w3.org/2000/svg" viewBox="0 0 128 128"><title>Deudas</title><g id="Layer_5" data-name="Layer 5"><path d="M93.74,37.93c-3.58-1.44-4.62-2.3-4.62-3.87,0-1.25,1-2.72,3.63-2.72a10.08,10.08,0,0,1,4.2.94,1.32,1.32,0,0,0,.62.16,1.25,1.25,0,0,0,1.17-.8L99.39,30a1,1,0,0,0-.56-1.32,25.2,25.2,0,0,0-4.34-1.13.22.22,0,0,1-.21-.23V24.88a1.34,1.34,0,0,0-1.35-1.32H91.76a1.34,1.34,0,0,0-1.35,1.32v2.54c0,.19-.21.28-.29.3-3.6.86-5.85,3.49-5.85,6.82,0,4.15,3.43,6,7.13,7.42,3,1.16,4.16,2.34,4.16,4.07,0,1.88-1.71,3.19-4.16,3.19a14.65,14.65,0,0,1-4.95-1.34,1.32,1.32,0,0,0-.57-.13,1.26,1.26,0,0,0-1.19.83l-.62,1.68a1.09,1.09,0,0,0,.55,1.37,22,22,0,0,0,5.25,1.46s.24.08.24.26v2.53a1.34,1.34,0,0,0,1.35,1.32h1.21A1.34,1.34,0,0,0,94,55.87V53.21a.25.25,0,0,1,.22-.28c3.83-.86,6.2-3.67,6.2-7.19S98.44,39.79,93.74,37.93Z"/><path d="M92.23,8.69a31.69,31.69,0,1,0,31.69,31.69A31.69,31.69,0,0,0,92.23,8.69Zm0,56a24.34,24.34,0,1,1,24.34-24.34A24.34,24.34,0,0,1,92.23,64.72Z"/><path d="M117.48,87.42A80.63,80.63,0,0,1,92.23,96C84,97.31,68.54,94.2,68.54,90.53c0-1.39,13.57,3.43,21.77,1.24,6.29-1.68,5.4-7.57,2-8.34S68.95,75.35,60.43,75.1c-4-.12-13.92,1.4-18.71,2.18-1.64.27-2.67.24-2.77,1.81-.48,7.3-1.42,22.24-1.93,30,0,.16.22,2.38,2,.82,2-1.71,4.81-3.6,7.41-3,4.07.92,39.32,7.38,44.19,6.25,7-1.62,26.65-13.29,30.42-16.91C126.93,90.65,122.38,84.71,117.48,87.42Z"/><path d="M29.22,77l-18.47-.91a3.32,3.32,0,0,0-3.24,2.39L4.16,109a2,2,0,0,0,1.95,2.61H26.58a2.73,2.73,0,0,0,2.79-2.49l2.25-29.37A2.52,2.52,0,0,0,29.22,77ZM18.35,107.53a5.11,5.11,0,1,1,5.11-5.11A5.11,5.11,0,0,1,18.35,107.53Z"/></g></svg>