<svg id="Layer_1" data-name="Layer 1" xmlns="http://www.w3.org/2000/svg" width="256" height="256" viewBox="0 0 256 256">
  <title>Dubts</title>
  <g id="Layer_5" data-name="Layer 5">
    <g>
      <g>
        <path d="M183.28,85.11c-6.66-2.67-8.58-4.28-8.58-7.2,0-2.33,1.77-5.06,6.75-5.06a18.73,18.73,0,0,1,7.81,1.75,2.46,2.46,0,0,0,1.15.29,2.32,2.32,0,0,0,2.17-1.49l1.21-3.09a1.91,1.91,0,0,0-1-2.46,46.85,46.85,0,0,0-8.07-2.1.42.42,0,0,1-.38-.43l0-4.49a2.49,2.49,0,0,0-2.51-2.45h-2.17a2.49,2.49,0,0,0-2.51,2.45v4.72c0,.36-.39.52-.53.55-6.69,1.59-10.87,6.49-10.87,12.68,0,7.71,6.37,11.19,13.25,13.8,5.5,2.16,7.74,4.35,7.74,7.56,0,3.49-3.18,5.93-7.73,5.93-3.89,0-9.14-2.46-9.2-2.49a2.46,2.46,0,0,0-1.06-.24,2.35,2.35,0,0,0-2.22,1.54L165.32,108a2,2,0,0,0,1,2.54c3.23,1.68,9.48,2.67,9.76,2.71.07,0,.46.14.46.49v4.7a2.49,2.49,0,0,0,2.51,2.45h2.24a2.49,2.49,0,0,0,2.51-2.45v-4.94a.47.47,0,0,1,.41-.52c7.13-1.6,11.52-6.82,11.52-13.36C195.76,92.92,192,88.57,183.28,85.11Z"/>
        <path d="M180.48,30.75a58.91,58.91,0,1,0,58.9,58.9A58.9,58.9,0,0,0,180.48,30.75Zm0,104.16a45.25,45.25,0,1,1,45.25-45.25A45.25,45.25,0,0,1,180.48,134.91Z"/>
      </g>
      <g>
        <path d="M227.41,177.11a149.88,149.88,0,0,1-46.93,16c-15.29,2.4-44-3.38-44-10.21,0-2.59,25.22,6.38,40.48,2.3,11.7-3.12,10-14.06,3.67-15.51s-43.39-15-59.22-15.48c-7.46-.22-25.87,2.59-34.78,4-3.05.5-5,.44-5.16,3.36-.89,13.57-2.63,41.33-3.59,55.83,0,.31.41,4.43,3.81,1.53,3.72-3.17,8.94-6.69,13.77-5.6,7.57,1.72,73.1,13.72,82.14,11.62,12.93-3,49.53-24.7,56.55-31.44C245,183.11,236.52,172.08,227.41,177.11Z"/>
        <path d="M63.35,157.72,29,156a6.18,6.18,0,0,0-6,4.44l-6.24,56.67A3.74,3.74,0,0,0,20.39,222h38a5.07,5.07,0,0,0,5.19-4.62l4.18-54.6A4.68,4.68,0,0,0,63.35,157.72ZM43.14,214.49A9.49,9.49,0,1,1,52.63,205,9.49,9.49,0,0,1,43.14,214.49Z"/>
      </g>
    </g>
  </g>
</svg>
