<svg id="Layer_1" data-name="Layer 1" xmlns="http://www.w3.org/2000/svg" viewBox="0 0 128 128"><title>Pedidos</title><path d="M126.24,65.23s0,0,0-.07a2.85,2.85,0,0,0-2.87-2.8h-.75L111,39.89a2.85,2.85,0,0,0-2.55-1.54H88.61l.76-6a8.15,8.15,0,0,0-8.22-9H19.57a3,3,0,0,0-3,2.74L15.95,31H51a4,4,0,0,1,4,4.12,4.26,4.26,0,0,1-4.23,4.12H39.11v0H4.75a3,3,0,0,0-3,2.92A2.83,2.83,0,0,0,4.6,45.1H50.09a4.28,4.28,0,0,1,3.63,4.36,4.56,4.56,0,0,1-4.5,4.42H17.86a3,3,0,0,0-3,2.95,2.85,2.85,0,0,0,2.87,2.95h31a4.28,4.28,0,0,1,3.69,4.37,4.56,4.56,0,0,1-4.54,4.42H9.32a3,3,0,0,0-3,2.95,2.85,2.85,0,0,0,2.87,2.95h2.58L10.73,85A8.15,8.15,0,0,0,19,94h2.22a12.85,12.85,0,0,0,12.72,10.64A13.72,13.72,0,0,0,47.17,94H74.93a9.41,9.41,0,0,0,6-2.26A8.2,8.2,0,0,0,86.71,94h.46a12.85,12.85,0,0,0,12.72,10.64A13.72,13.72,0,0,0,113.16,94H115a9.68,9.68,0,0,0,9.44-8.65l1.8-19.89s0-.05,0-.08,0-.08,0-.12S126.24,65.25,126.24,65.23ZM34,98.79a7.15,7.15,0,0,1-7.17-7.37,7.61,7.61,0,0,1,7.56-7.37,7.15,7.15,0,0,1,7.17,7.37A7.61,7.61,0,0,1,34,98.79Zm66,0a7.15,7.15,0,0,1-7.17-7.37,7.61,7.61,0,0,1,7.56-7.37,7.15,7.15,0,0,1,7.17,7.37A7.61,7.61,0,0,1,100,98.79ZM118.56,85a3.55,3.55,0,0,1-3.41,3.13h-2a12.85,12.85,0,0,0-12.59-10,13.72,13.72,0,0,0-13.11,10h-.61A2.5,2.5,0,0,1,85,87.36a2.54,2.54,0,0,1-.62-2l3.71-41.16h8.53l-1.35,15a8.15,8.15,0,0,0,8.22,9h16.6Z"/></svg>