<svg id="Layer_1" data-name="Layer 1" xmlns="http://www.w3.org/2000/svg" viewBox="0 0 128 128"><title>Produccion</title><path d="M73.66,10.61A6,6,0,0,1,73,9.27L73.23,9l1.31.54,1.43.57a16.77,16.77,0,0,0,1.77.58,5.25,5.25,0,0,0,1,.23c.17,0,.32.07.49.1l.49,0a10.06,10.06,0,0,0,1.92,0c.31-.11.65-.14,1-.29a7.53,7.53,0,0,0,1-.52L84,10a1.87,1.87,0,0,0,.54-.37l1.17-1,0,0h0l0,0,0,0,.08-.07L86,8.39l.31-.27.58-.55c.36-.37.82-.67,1.19-1s.85-.6,1.23-1,.9-.57,1.36-.88A5.85,5.85,0,0,1,93.84,4c.26,0,.51.07.75.11s.46.15.68.23a6.47,6.47,0,0,1,1.21.57,8.32,8.32,0,0,1,1.78,1.39,8,8,0,0,1,1.06,1.34,6.31,6.31,0,0,1,.52,1L100,9l-.25.23s-.53-.18-1.33-.52L97,8.18c-.53-.22-1.11-.46-1.73-.67a8.56,8.56,0,0,0-.94-.31c-.16,0-.32-.1-.49-.15a4.28,4.28,0,0,1-.49-.13,10.15,10.15,0,0,0-2.19-.52,4.78,4.78,0,0,0-1.25.2,3.55,3.55,0,0,0-1.15.7,4.91,4.91,0,0,0-.89,1.06L87.54,9l-.15.32-.07.16,0,.08,0,0v0h0l0,.07-.63,1.39a7.13,7.13,0,0,1-1.07,1.4,8.39,8.39,0,0,1-1.39,1.14,10,10,0,0,1-1.64.79,6.55,6.55,0,0,1-3.41.12,5.82,5.82,0,0,1-1.43-.49,8.29,8.29,0,0,1-1.19-.65A9.22,9.22,0,0,1,74.72,12,8.42,8.42,0,0,1,73.66,10.61ZM124,89.44v28.62H4V89.44h8.18V57.29l23-16.17V57.29l23-16.17V57.29l23-16.17V72.9h8l4.32-56.21h13.18l3.78,56.21h8.87V89.44H124ZM41.61,77.08H23.49V93.8H41.61Zm31.22,0H54.71V93.8H72.83Zm31.61,0H86.32V93.8h18.12Z"/></svg>