<svg id="Layer_1" data-name="Layer 1" xmlns="http://www.w3.org/2000/svg" width="256" height="256" viewBox="0 0 256 256">
  <title>Truck</title>
  <path d="M242.78,130.26s0-.09,0-.13a5.26,5.26,0,0,0-5.28-5.17H236.1L214.67,83.53a5.26,5.26,0,0,0-4.7-2.84H173.39l1.4-11.06A15,15,0,0,0,159.63,53H46.07A5.61,5.61,0,0,0,40.52,58l-1.14,9.12h64.7a7.37,7.37,0,0,1,7.41,7.61,7.85,7.85,0,0,1-7.81,7.61H82.1v0H18.74a5.55,5.55,0,0,0-5.52,5.38,5.21,5.21,0,0,0,5.24,5.38h83.9a7.88,7.88,0,0,1,6.7,8,8.41,8.41,0,0,1-8.3,8.15H42.92a5.61,5.61,0,0,0-5.58,5.43,5.26,5.26,0,0,0,5.29,5.43H99.79a7.89,7.89,0,0,1,6.81,8.06,8.41,8.41,0,0,1-8.36,8.15H27.15a5.61,5.61,0,0,0-5.58,5.43,5.26,5.26,0,0,0,5.29,5.43h4.76l-1.86,19.46A15,15,0,0,0,44.92,183.4H49A23.7,23.7,0,0,0,72.48,203,25.31,25.31,0,0,0,97,183.4h51.19a17.34,17.34,0,0,0,11.13-4.17,15.13,15.13,0,0,0,10.6,4.17h.84A23.7,23.7,0,0,0,194.19,203a25.31,25.31,0,0,0,24.48-19.62H222a17.85,17.85,0,0,0,17.4-16l3.31-36.68s0-.1,0-.15,0-.15,0-.23S242.78,130.31,242.78,130.26Zm-170,61.9a13.18,13.18,0,0,1-13.23-13.58A14,14,0,0,1,73.48,165,13.18,13.18,0,0,1,86.7,178.58,14,14,0,0,1,72.76,192.16Zm121.71,0a13.18,13.18,0,0,1-13.23-13.58A14,14,0,0,1,195.18,165a13.18,13.18,0,0,1,13.23,13.58A14,14,0,0,1,194.47,192.16Zm34.15-25.4a6.54,6.54,0,0,1-6.29,5.78h-3.65a23.71,23.71,0,0,0-23.21-18.41,25.31,25.31,0,0,0-24.17,18.41h-1.12a4.61,4.61,0,0,1-3.47-1.46,4.68,4.68,0,0,1-1.14-3.63l6.85-75.9h15.73l-2.49,27.63a15,15,0,0,0,15.16,16.65h30.61Z"/>
</svg>
